<svg xmlns="http://www.w3.org/2000/svg"  viewBox="0 0 100 100" width="100px" height="100px"><path fill="#ee3e54" d="M13,27c-1.105,0-2,0.895-2,2s0.895,2,2,2s2-0.895,2-2S14.105,27,13,27z"/><path fill="#f1bc19" d="M77,12c-0.551,0-1,0.449-1,1s0.449,1,1,1s1-0.449,1-1S77.551,12,77,12z"/><path fill="#fce0a2" d="M50,13c-20.434,0-37,16.566-37,37s16.566,37,37,37s37-16.566,37-37S70.434,13,50,13z"/><path fill="#f1bc19" d="M83,11c-2.211,0-4,1.789-4,4s1.789,4,4,4s4-1.789,4-4S85.211,11,83,11z"/><path fill="#ee3e54" d="M87,22c-1.105,0-2,0.895-2,2s0.895,2,2,2s2-0.895,2-2S88.105,22,87,22z"/><path fill="#fbcd59" d="M81,74c-1.105,0-2,0.895-2,2s0.895,2,2,2s2-0.895,2-2S82.105,74,81,74z M15,59 c-2.211,0-4,1.789-4,4s1.789,4,4,4s4-1.789,4-4S17.211,59,15,59z"/><path fill="#ee3e54" d="M25,85c-1.105,0-2,0.895-2,2s0.895,2,2,2s2-0.895,2-2S26.105,85,25,85z"/><path fill="#fff" d="M18.5,48c-1.379,0-2.5,1.121-2.5,2.5s1.121,2.5,2.5,2.5s2.5-1.121,2.5-2.5S19.879,48,18.5,48z"/><path fill="#f1bc19" d="M21,66c-0.551,0-1,0.449-1,1s0.449,1,1,1s1-0.449,1-1S21.551,66,21,66z"/><path fill="#fff" d="M80,33c-0.551,0-1,0.449-1,1s0.449,1,1,1s1-0.449,1-1S80.551,33,80,33z"/><g><path fill="#d8ad8f" d="M50.44,57.178c-0.593-0.414-8.198-3.047-8.198-3.047c-0.483-0.129-0.752-0.519-0.838-0.956 c-0.104-0.527-0.158-1.37-0.186-2.205c2.047-1.124,3.652-2.771,4.907-4.812c0.208-0.339,0.372-0.95,0.376-1.346 c0.008-0.788,0.008-1.576,0.01-2.364c0.485-0.068,0.821-0.344,1.013-0.949c0.316-0.998,0.788-3.08,0.794-3.098 c0.424-1.293-0.205-1.96-1.434-1.936c0.153-0.095,0.624-0.575,0.809-0.946c0.03,0.001,0.058,0.005,0.088,0.005 c0.12,0,0.237-0.01,0.353-0.025c1.618,0.522,4.083,0.203,4.731-3.595c-0.594,0.763-1.582,1.086-2.41,1.011 c-0.006-0.346-0.082-0.674-0.217-0.974c0.479-0.448,0.777-1.073,0.777-1.766c0-1.363-1.152-2.468-2.573-2.468 c-0.01,0-0.02,0.001-0.031,0.001c0.1-0.302,0.154-0.624,0.154-0.958c0-1.752-1.48-3.171-3.307-3.171 c-0.314,0-0.617,0.045-0.904,0.123c0.001-0.041,0.007-0.082,0.007-0.123c0-2.075-1.848-3.758-4.128-3.758 c-1.318,0-2.489,0.564-3.244,1.439c-0.841-0.527-1.897-0.843-3.048-0.843c-2.734,0-4.951,1.772-4.951,3.959 c0,0.097,0.01,0.191,0.018,0.286c-0.643,0.308-1.137,0.809-1.355,1.457c-0.215,0.638,0.49,2.421,0.463,2.485l0,0 c-0.18,0.002-1.896,0.127-1.517,1.882c0.082,0.38,0.697,5.814,1.024,5.975c-1.229-0.024-1.855,0.647-1.431,1.94 c0.006,0.018,0.477,2.1,0.794,3.098c0.213,0.671,0.603,0.939,1.179,0.964c0.006,0.666,0.007,1.332-0.021,1.996 c-0.036,0.836,0.216,1.566,0.685,2.245c1.199,1.736,2.713,3.156,4.548,4.225c-0.028,0.835-0.082,1.689-0.184,2.247 c-0.08,0.438-0.355,0.827-0.838,0.956l-6.217,2.136c-0.622,0.17-1.22,0.414-1.745,0.753c-2.744,1.773-2.906,5.302-2.853,5.503 h15.76h15.76C53.111,62.322,52.991,58.96,50.44,57.178z"/><path fill="#efa21b" d="M41.344,32.608c0.544,1.085,1.721,1.838,3.091,1.838c0.335,0,0.658-0.047,0.964-0.131 c0.48,0.568,1.222,0.934,2.058,0.934c0.117,0,0.232-0.01,0.345-0.024c1.519,0.476,3.992,0.765,4.738-2.439 c-0.573,0.434-1.644,0.551-2.138,0.245c-0.006-0.34-0.087-0.904-0.221-1.199c0.476-0.441,0.772-1.055,0.772-1.736 c0-1.34-1.145-2.427-2.557-2.427c-0.01,0-0.02,0.001-0.03,0.001c0.099-0.297,0.153-0.613,0.153-0.942 c0-1.722-1.471-3.119-3.286-3.119c-0.312,0-0.613,0.044-0.899,0.121c0.001-0.041,0.007-0.08,0.007-0.121 c0-2.041-1.837-3.695-4.102-3.695c-1.309,0-2.473,0.555-3.224,1.415c-0.835-0.518-1.885-0.829-3.028-0.829 c-2.717,0-4.919,1.743-4.919,3.893c0,0.095,0.009,0.188,0.018,0.281c-0.639,0.303-1.13,0.795-1.347,1.432 c-0.015,0.043,0.393,2.156,0.452,2.395c0.438,0.57,1.112,1.041,1.945,1.291c0.853,0.257,1.715,0.235,2.438-0.004 c0.601,2.004,2.919,3.497,5.69,3.497C39.396,33.287,40.45,33.038,41.344,32.608z"/><path fill="#d8ad8f" d="M37.293,62.449h15.651c0.053-0.193-0.066-3.436-2.599-5.156c-0.589-0.399-8.141-2.94-8.141-2.94 c-0.48-0.124-0.793-0.472-0.973-0.863c-0.298-0.647-0.169-2.606-0.169-2.606s-1.865,1.129-3.385,1.417 c-1.49,0.147-4.054-1.297-4.054-1.297s-0.132,1.908-0.233,2.446c-0.08,0.423-0.527,0.78-1.008,0.904l-6.174,2.06 c-0.618,0.164-1.212,0.399-1.733,0.726c-2.725,1.71-2.886,5.115-2.833,5.308H37.293z"/><path fill="#00a5a5" d="M38.406,72.375c5.441,0,10.538-1.455,14.938-3.987c-0.169-6.137-0.001-10.214-3.02-11.141 c-0.661-0.203-3.15-1.402-3.15-1.402s-6.446,3.607-9.239,4.176c-4.463,0.91-10.378,1.441-16.112,0.85 c-0.059,0.246-0.159,4.568-0.261,6.332C26.365,70.466,32.162,72.375,38.406,72.375z"/><path fill="#6d3c14" d="M28.434,28.923c-0.153,0.027-0.431,0.132-0.552,0.156c-0.964,0.188-0.881,1.002-0.881,1.002 l0.908,5.831c0.029-0.504,0.156-4.999,1.587-6.227C29.422,29.649,28.503,29.055,28.434,28.923z" opacity=".34"/><path fill="#472b29" d="M35.773,35.698c-1.602-0.455-4.325-0.571-5.945-0.311c-0.092,0.015-0.158,0.081-0.157,0.159 c0.001,0.077,0.068,0.143,0.16,0.156c0.033,0.005,4.079,0.488,5.352,0.864c0.022,0.006,0.044,0.009,0.066,0.009 c0.063,0,0.125-0.026,0.162-0.071l0.462-0.565c0.034-0.041,0.042-0.093,0.023-0.14C35.874,35.751,35.83,35.714,35.773,35.698z"/><path fill="#472b29" d="M38.97,35.698c1.602-0.455,4.325-0.571,5.945-0.311c0.092,0.015,0.158,0.081,0.157,0.159 c-0.001,0.077-0.068,0.143-0.16,0.156c-0.033,0.005-4.079,0.488-5.352,0.864c-0.022,0.006-0.044,0.009-0.066,0.009 c-0.063,0-0.125-0.026-0.162-0.071l-0.462-0.565c-0.034-0.041-0.042-0.093-0.023-0.14C38.868,35.751,38.913,35.714,38.97,35.698 z"/><path fill="#472b29" d="M32.948,37.508c-0.403,0-0.757,0.263-0.961,0.661c0.051-0.016,0.104-0.027,0.159-0.027 c0.33,0,0.598,0.295,0.598,0.66s-0.268,0.66-0.598,0.66c-0.108,0-0.208-0.034-0.296-0.09c0.141,0.598,0.579,1.033,1.098,1.033 c0.633,0,1.146-0.649,1.146-1.449C34.094,38.157,33.581,37.508,32.948,37.508z"/><path fill="#472b29" d="M41.718,37.508c-0.344,0-0.652,0.192-0.862,0.496c0.066-0.027,0.136-0.044,0.21-0.044 c0.33,0,0.598,0.295,0.598,0.66c0,0.364-0.268,0.66-0.598,0.66c-0.205,0-0.386-0.114-0.493-0.287 c0.015,0.784,0.521,1.414,1.145,1.414c0.633,0,1.146-0.649,1.146-1.449C42.864,38.157,42.351,37.508,41.718,37.508z"/><path fill="#472b29" d="M37.312,44.968c0.67,0,1.32-0.29,1.74-0.775c0.094-0.109,0.081-0.275-0.03-0.368 c-0.111-0.093-0.277-0.081-0.371,0.026c-0.289,0.326-0.777,0.513-1.339,0.513s-1.05-0.187-1.339-0.513 c-0.092-0.103-0.262-0.118-0.372-0.026c-0.11,0.093-0.123,0.259-0.028,0.368C35.992,44.679,36.642,44.968,37.312,44.968z" opacity=".41"/><path fill="#472b29" d="M37.525,52.449c-1.593,0-4.146-1.43-4.259-1.494c-0.12-0.068-0.162-0.22-0.095-0.341 c0.067-0.121,0.221-0.163,0.341-0.095c0.027,0.015,2.79,1.567,4.195,1.421c1.424-0.145,3.503-1.435,3.523-1.448 c0.119-0.073,0.272-0.038,0.345,0.079c0.073,0.117,0.038,0.271-0.079,0.344c-0.089,0.056-2.198,1.364-3.738,1.521 C37.684,52.445,37.605,52.449,37.525,52.449z"/><path fill="#e2900e" d="M50.404,32.941c-0.006-0.337-0.087-0.898-0.221-1.19c0.476-0.438,0.772-1.048,0.772-1.724 c0-1.331-1.145-2.41-2.557-2.41c-0.01,0-0.02,0.001-0.03,0.001c0.099-0.295,0.153-0.609,0.153-0.935 c0-1.711-1.471-3.097-3.286-3.097c-0.312,0-0.613,0.044-0.899,0.12c0.001-0.04,0.007-0.08,0.007-0.12 c0-2.027-1.837-3.67-4.102-3.67c-1.019,0-1.947,0.337-2.664,0.888c0.336,0.34,0.114-0.047,0.336,0.34 c1.071-0.393,2.885-0.139,4.035,0.483c1.989,1.077,2.793,3.96,1.817,5.74c-0.02,0.036-0.043,0.068-0.064,0.102 c0.288,0.069,0.573,0.173,0.847,0.322c1.593,0.862,2.217,2.779,1.393,4.281c-0.157,0.286-0.356,0.536-0.585,0.748 c0.009,0.005,0.018,0.008,0.027,0.013c0.863,0.467,1.349,1.331,1.355,2.207c0.23,0.061,0.469,0.104,0.72,0.104 c0.117,0,0.232-0.01,0.345-0.023c1.519,0.473,3.992,0.76,4.738-2.423C51.968,33.129,50.897,33.244,50.404,32.941z"/><path fill="#472b29" d="M49.391,35.925c-0.627,0-1.239-0.155-1.583-0.405c-0.901,0.078-1.813-0.256-2.426-0.889 c-1.608,0.359-3.303-0.349-4.106-1.656c-0.908,0.389-1.93,0.593-2.972,0.593c-2.757,0-5.14-1.398-5.918-3.434 c-0.748,0.183-1.569,0.157-2.349-0.076c-0.973-0.291-1.777-0.864-2.266-1.613c-0.091-0.139-0.052-0.324,0.087-0.415 c0.139-0.09,0.324-0.052,0.415,0.087c0.405,0.621,1.11,1.119,1.936,1.366c0.764,0.229,1.571,0.229,2.274-0.001 c0.079-0.025,0.161-0.018,0.232,0.019c0.071,0.037,0.125,0.102,0.148,0.179c0.574,1.905,2.861,3.287,5.439,3.287 c1.053,0,2.079-0.225,2.97-0.65c0.144-0.069,0.323-0.011,0.396,0.136c0.639,1.268,2.25,1.958,3.734,1.554 c0.113-0.031,0.233,0.007,0.308,0.095c0.513,0.604,1.348,0.906,2.154,0.808c0.091-0.012,0.184,0.021,0.25,0.087 c0.274,0.279,1.507,0.513,2.284,0.126c0.148-0.074,0.328-0.013,0.402,0.135c0.074,0.148,0.014,0.328-0.135,0.402 C50.3,35.844,49.842,35.925,49.391,35.925z"/><ellipse cx="31.658" cy="43.762" fill="#ba8964" opacity=".8" rx="1.569" ry="1.593"/><ellipse cx="43.721" cy="43.762" fill="#ba8964" opacity=".8" rx="1.569" ry="1.593"/><ellipse cx="34.887" cy="40.583" fill="#9f8066" opacity=".8" rx=".177" ry=".18"/><ellipse cx="35.064" cy="41.953" fill="#9f8066" opacity=".8" rx=".177" ry=".18"/><ellipse cx="36.281" cy="41.204" fill="#9f8066" opacity=".8" rx=".177" ry=".18"/><ellipse cx="38.839" cy="41.178" fill="#9f8066" opacity=".8" rx=".177" ry=".18"/><ellipse cx="39.532" cy="42.367" fill="#9f8066" opacity=".8" rx=".177" ry=".18"/><ellipse cx="40.36" cy="41.194" fill="#9f8066" opacity=".8" rx=".177" ry=".18"/><path fill="#472b29" d="M28.416,42.755c-0.153,0-0.284-0.117-0.299-0.273l-0.555-6.044 c-0.015-0.165,0.106-0.311,0.271-0.326c0.157-0.014,0.311,0.107,0.326,0.271l0.555,6.044c0.015,0.165-0.106,0.311-0.271,0.326 C28.435,42.754,28.425,42.755,28.416,42.755z"/><path fill="#472b29" d="M46.431,42.67c-0.006,0-0.012,0-0.019,0c-0.165-0.01-0.291-0.152-0.281-0.318l0.358-5.898 c0.01-0.165,0.125-0.292,0.318-0.281c0.165,0.01,0.291,0.152,0.281,0.318l-0.358,5.898C46.721,42.547,46.588,42.67,46.431,42.67z"/><g><path fill="#472b29" d="M38.373,72.841c-6.147,0-12.079-1.813-17.153-5.241c-0.15-0.102-0.233-0.277-0.218-0.458 c0.069-0.789,0.14-2.141,0.206-3.414c0.109-2.092,0.157-2.884,0.214-3.188c0.006-0.045,0.017-0.09,0.034-0.132 c0.357-1.168,1.122-2.762,2.741-3.808c0.533-0.344,1.167-0.619,1.885-0.815l6.187-2.126c0.374-0.101,0.478-0.402,0.509-0.573 c0.076-0.412,0.132-1.044,0.165-1.879c-1.762-1.075-3.257-2.493-4.448-4.218c-0.56-0.811-0.813-1.645-0.773-2.551 c0.022-0.516,0.025-1.033,0.023-1.55c-0.56-0.161-0.948-0.576-1.158-1.238c-0.129-0.408-0.37-1.267-0.782-3.041 c-0.327-1.019-0.104-1.615,0.141-1.945c0.19-0.258,0.539-0.552,1.162-0.66c-0.102-0.58-0.265-1.551-0.474-2.798 c-0.212-1.263-0.408-2.441-0.445-2.614c-0.188-0.867,0.065-1.415,0.311-1.722c0.27-0.338,0.633-0.527,0.954-0.632 c-0.386-0.889-0.447-1.673-0.185-2.309c0.274-0.664,0.721-1.194,1.3-1.552c0-2.458,2.445-4.458,5.45-4.458 c1.061,0,2.074,0.246,2.957,0.714c0.871-0.837,2.063-1.309,3.335-1.309c2.378,0,4.342,1.657,4.601,3.781 c2.237-0.25,4.232,1.487,4.232,3.648c0,0.173-0.013,0.345-0.038,0.515c1.427,0.272,2.488,1.473,2.488,2.909 c0,0.696-0.246,1.353-0.698,1.882c0.037,0.117,0.066,0.236,0.089,0.357c0.524-0.049,1.145-0.279,1.564-0.819 c0.143-0.181,0.387-0.242,0.597-0.15c0.209,0.093,0.329,0.316,0.291,0.542c-0.363,2.125-0.902,3.387-2.708,3.976 c-1.231,0.33-2.25,0.183-2.706,0.098c-0.015,0.02-0.029,0.04-0.044,0.059c0.369,0.141,0.6,0.354,0.742,0.547 c0.244,0.329,0.468,0.924,0.151,1.889c-0.423,1.826-0.664,2.685-0.793,3.093c-0.188,0.593-0.52,0.988-0.99,1.179v0.092 c-0.001,0.632-0.003,1.264-0.009,1.895c-0.005,0.505-0.198,1.194-0.448,1.603c-1.291,2.099-2.912,3.725-4.823,4.836 c0.035,0.829,0.091,1.442,0.165,1.823c0.043,0.212,0.16,0.485,0.478,0.569c1.313,0.457,7.72,2.702,8.344,3.113 c2.584,1.701,2.687,3.376,2.762,4.599l0.01,0.157l0.287,6.818c0.008,0.187-0.089,0.362-0.251,0.455 C48.978,71.44,43.712,72.841,38.373,72.841z M22.022,66.933c4.854,3.212,10.501,4.908,16.351,4.908 c5.063,0,10.059-1.303,14.467-3.77l-0.282-6.65c-0.069-1.124-0.147-2.398-2.314-3.825c-0.44-0.279-5.194-1.984-8.087-2.993 c-0.581-0.153-1.03-0.655-1.164-1.331c-0.096-0.486-0.159-1.233-0.195-2.285c-0.006-0.188,0.094-0.365,0.26-0.455 c1.875-1.029,3.463-2.589,4.722-4.636c0.154-0.252,0.298-0.771,0.301-1.09c0.006-0.629,0.008-1.258,0.009-1.887l0.001-0.473 c0.001-0.249,0.185-0.459,0.431-0.494c0.26-0.037,0.463-0.153,0.605-0.605c0.124-0.391,0.356-1.223,0.762-2.966 c0.003-0.014,0.028-0.122,0.033-0.135c0.102-0.31,0.184-0.731-0.004-0.984c-0.149-0.201-0.493-0.31-0.945-0.297 c-0.253,0.002-0.426-0.143-0.489-0.358c-0.063-0.216,0.024-0.448,0.216-0.567c0.094-0.064,0.483-0.46,0.626-0.745 c0.088-0.175,0.268-0.286,0.464-0.276c0.104,0.005,0.183,0.013,0.3,0.037c0.339,0.068,1.24,0.249,2.355-0.05 c0.901-0.294,1.383-0.774,1.717-1.883c-0.517,0.234-1.098,0.341-1.672,0.29c-0.254-0.023-0.45-0.234-0.455-0.49 c-0.005-0.271-0.063-0.533-0.173-0.777c-0.088-0.195-0.042-0.424,0.114-0.57c0.399-0.374,0.619-0.871,0.619-1.401 c0-1.085-0.931-1.968-2.074-1.968c-0.16,0-0.326-0.076-0.42-0.206c-0.095-0.13-0.136-0.296-0.085-0.449 c0.086-0.26,0.129-0.53,0.129-0.801c0-1.473-1.259-2.671-2.807-2.671c-0.257,0-0.517,0.035-0.772,0.105 c-0.153,0.041-0.315,0.009-0.44-0.089c-0.124-0.097-0.195-0.248-0.191-0.406l0.471-0.095L44.4,23.588l-0.462-0.009 c0-1.796-1.628-3.257-3.629-3.257c-1.126,0-2.171,0.461-2.866,1.266c-0.162,0.188-0.436,0.227-0.644,0.097 c-0.801-0.502-1.764-0.767-2.782-0.767c-2.454,0-4.45,1.552-4.45,3.459c0,0.066,0.006,0.131,0.012,0.196 c0.018,0.207-0.091,0.451-0.278,0.541c-0.508,0.244-0.881,0.646-1.109,1.197c-0.195,0.471-0.05,1.18,0.409,1.995 c0.076,0.134,0.113,0.349,0.054,0.491c-0.076,0.184-0.256,0.304-0.455,0.307c-0.007,0-0.629,0.025-0.92,0.39 c-0.16,0.201-0.198,0.499-0.115,0.886c0.038,0.176,0.24,1.375,0.455,2.66c0.231,1.383,0.52,3.104,0.567,3.309 c0.034,0.15-0.002,0.308-0.1,0.427c-0.097,0.119-0.238,0.185-0.397,0.185c-0.45-0.013-0.792,0.096-0.941,0.297 c-0.146,0.198-0.148,0.549-0.004,0.987c0.004,0.014,0.03,0.123,0.033,0.137c0.405,1.743,0.638,2.575,0.762,2.965 c0.157,0.495,0.385,0.601,0.724,0.616c0.266,0.012,0.477,0.229,0.479,0.495c0.006,0.675,0.008,1.349-0.021,2.022 c-0.03,0.681,0.165,1.315,0.596,1.94c1.165,1.687,2.642,3.058,4.389,4.077c0.158,0.093,0.254,0.265,0.248,0.448 c-0.034,1.032-0.099,1.813-0.191,2.321c-0.124,0.677-0.574,1.182-1.203,1.349l-6.183,2.125c-0.648,0.179-1.188,0.411-1.636,0.7 c-1.377,0.889-2.03,2.274-2.335,3.284c-0.002,0.005-0.003,0.01-0.005,0.015c-0.046,0.215-0.128,1.782-0.193,3.041 C22.147,64.919,22.085,66.119,22.022,66.933z"/></g><g opacity=".49"><path fill="#472b29" d="M42.026,46.276c-0.041-0.05-0.1-0.082-0.165-0.089c-0.066-0.008-0.129,0.011-0.179,0.051 c-0.933,0.734-2.49,1.155-4.273,1.155c-1.783,0-3.34-0.421-4.273-1.155c-0.101-0.082-0.264-0.063-0.345,0.037 c-0.085,0.103-0.069,0.256,0.036,0.34c1.106,0.893,2.819,1.426,4.582,1.426c1.763,0,3.475-0.533,4.581-1.425 C42.094,46.532,42.11,46.379,42.026,46.276z"/></g></g><g><path fill="#472b29" d="M54.342,45.421c0,0,0.182,13.981,1.814,15.3c2.386,1.93,18.027,1.876,20.348,0 c1.675-1.354,1.814-15.3,1.814-15.3H54.342L54.342,45.421z"/><path fill="#d6a078" d="M77.364,63.937c-0.213-1.459-0.674-2.313-1.759-2.737c-0.047-0.018-0.11-0.048-0.182-0.083 c-0.082-0.046-0.186-0.1-0.308-0.162c-0.658-0.359-5.057-2.221-5.057-2.221c-0.322-0.106-0.532-0.402-0.653-0.736 c-0.2-0.551-0.165-3.105-0.165-3.105h-4.776c0,0-0.05,2.612-0.118,3.07c-0.053,0.36-0.354,0.665-0.676,0.77l-4.241,1.756 c-0.527,0.246-0.785,0.412-1.163,0.619c-1.921,1.055-1.912,5.082-1.902,5.163c-0.023,0.316-0.048,2.403-0.072,2.768 c0.098,0.086,0.194,0.163,0.291,0.246c3.229,1.231,6.73,1.912,10.391,1.912c3.757,0,7.344-0.718,10.642-2.011 C77.508,66.591,77.364,63.937,77.364,63.937z"/><path fill="#edbc94" d="M76.239,48.229c0.086-1.384,0.346-2.769,0.605-4.153v-1.644c-0.519-2.076-1.471-4.499-3.201-5.97 c-1.993-1.63-4.601-2.431-7.206-2.39l-1.069,0.03c-1.1,0.08-2.185,0.311-3.208,0.693l-0.678,0.279 c-0.806,0.364-1.565,0.826-2.25,1.388c-1.731,1.471-2.682,3.893-3.201,5.97v1.644c0.26,1.384,0.519,2.769,0.605,4.153 c-2.682-0.173-3.461,2.249-1.124,3.72c0.952,0.606,1.959,0.021,2.158,0.307c1.265,1.819,1.987,2.444,2.894,2.966 c1.741,1.002,3.936,1.19,4.453,1.221c0.004,0,0.007-0.003,0.011-0.002c1.237,0.153,2.705,0.036,2.718,0.008 c0,0,2.58-0.084,4.566-1.227c0.906-0.522,1.629-1.147,2.894-2.966c0.199-0.286,1.207,0.298,2.158-0.307 C79.7,50.479,78.921,48.056,76.239,48.229z"/><path fill="#512c2b" d="M66.709,49.407c-0.422,0-0.831,0.215-1.094,0.575c-0.026,0.036-0.023,0.091,0.008,0.122l0,0 c0.031,0.031,0.077,0.027,0.104-0.009c0.215-0.286,0.573-0.45,0.982-0.45c0.41,0,0.768,0.164,0.982,0.45 c0.015,0.02,0.035,0.029,0.056,0.029c0.017,0,0.034-0.007,0.049-0.021c0.031-0.031,0.034-0.086,0.008-0.122 C67.54,49.622,67.131,49.407,66.709,49.407z" opacity=".42"/><path fill="#512c2b" d="M71.159,51.659c0.043-0.041,0.049-0.116,0.015-0.167l0,0c-0.035-0.051-0.098-0.059-0.142-0.018 c-0.949,0.892-2.524,1.404-4.323,1.404c-1.798,0-3.374-0.512-4.323-1.404c-0.019-0.017-0.041-0.026-0.063-0.026 c-0.03,0-0.059,0.015-0.079,0.044c-0.035,0.051-0.028,0.126,0.015,0.167c1.071,1.033,2.735,1.65,4.45,1.65 C68.424,53.309,70.087,52.692,71.159,51.659z"/><path fill="#512c2b" d="M70.269,43.65c-0.795-0.459-1.782-0.589-2.66-0.353L70.269,43.65z"/><path fill="#512c2b" d="M69.078,45.268c-0.218,0-0.412,0.12-0.545,0.31c0.042-0.017,0.086-0.028,0.133-0.028 c0.209,0,0.379,0.185,0.379,0.413c0,0.228-0.169,0.413-0.379,0.413c-0.13,0-0.244-0.071-0.312-0.18 c0.009,0.49,0.33,0.884,0.724,0.884c0.4,0,0.725-0.406,0.725-0.906C69.803,45.674,69.479,45.268,69.078,45.268z"/><path fill="#512c2b" d="M65.808,43.295c-0.888-0.234-1.874-0.099-2.659,0.359L65.808,43.295z"/><path fill="#512c2b" d="M64.591,45.268c-0.218,0-0.412,0.12-0.545,0.31c0.042-0.017,0.086-0.028,0.133-0.028 c0.209,0,0.379,0.185,0.379,0.413c0,0.228-0.169,0.413-0.379,0.413c-0.13,0-0.244-0.071-0.312-0.18 c0.009,0.49,0.33,0.884,0.724,0.884c0.4,0,0.725-0.406,0.725-0.906C65.316,45.674,64.991,45.268,64.591,45.268z"/><g><path fill="#f8ab97" d="M59.44,50.116c0.722,0.376,2.781,0.676,2.788-0.582c0.007-1.258-2.147-1.332-2.938-0.982 C58.245,49.014,58.54,49.646,59.44,50.116z"/><path fill="#f8ab97" d="M73.977,50.116c-0.722,0.376-2.781,0.676-2.788-0.582c-0.007-1.258,2.147-1.332,2.938-0.982 C75.172,49.014,74.878,49.646,73.977,50.116z"/></g><g><path fill="#d3a47d" d="M77.232,51.201l-0.594-0.088l0.179-1.206l-0.789,0.205l-0.15-0.581l1.228-0.319 c0.094-0.026,0.2,0,0.275,0.067c0.075,0.067,0.111,0.167,0.097,0.267L77.232,51.201z"/><path fill="#472b29" d="M75.344,52.42c-0.019,0-0.037-0.002-0.056-0.007c-0.121-0.031-0.193-0.154-0.162-0.274 l1.034-4.028c0.031-0.12,0.152-0.191,0.273-0.162c0.121,0.031,0.193,0.154,0.162,0.274l-1.034,4.028 C75.535,52.353,75.444,52.42,75.344,52.42z"/><g><path fill="#d3a47d" d="M55.825,51.262l-0.245-1.654c-0.015-0.1,0.021-0.2,0.097-0.267 c0.074-0.068,0.18-0.093,0.275-0.067l1.228,0.319l-0.15,0.581l-0.789-0.205l0.179,1.206L55.825,51.262z"/><path fill="#472b29" d="M57.714,52.457c-0.089,0-0.171-0.06-0.193-0.15l-1.034-4.027 c-0.028-0.107,0.037-0.216,0.144-0.243c0.106-0.029,0.217,0.037,0.243,0.144l1.034,4.027c0.027,0.107-0.037,0.216-0.144,0.243 C57.747,52.455,57.73,52.457,57.714,52.457z"/></g></g><g><circle cx="63.155" cy="47.899" r=".164" fill="#512c2b" opacity=".16"/><circle cx="63.697" cy="49.174" r=".164" fill="#512c2b" opacity=".16"/><circle cx="64.472" cy="48.341" r=".164" fill="#512c2b" opacity=".16"/><g><circle cx="70.082" cy="47.899" r=".164" fill="#512c2b" opacity=".16"/><circle cx="69.541" cy="49.174" r=".164" fill="#512c2b" opacity=".16"/><circle cx="68.766" cy="48.341" r=".164" fill="#512c2b" opacity=".16"/></g></g><g><path fill="#fbcd59" d="M77.361,63.937c-0.213-1.459-0.674-2.313-1.759-2.737c-0.047-0.018-0.11-0.048-0.182-0.083 c-0.082-0.046-0.186-0.1-0.308-0.162c-0.385-0.21-2.046-0.933-3.362-1.498c-1.626,1.543-8.07,1.365-9.678-0.063l-2.647,1.096 c-0.527,0.246-0.785,0.412-1.163,0.619c-1.921,1.055-1.912,5.082-1.902,5.163c-0.021,0.29-0.047,2.409-0.069,2.98 c1.813,0.989,7.178,2.115,10.737,2.07c4.192-0.053,7.289-0.687,10.588-1.98C77.508,66.746,77.361,63.937,77.361,63.937z"/></g><g><path fill="#78a0cf" d="M61.286,70.741c1.938,0.362,4.044,0.603,5.741,0.582c2.143-0.027,3.998-0.204,5.741-0.538v-3.463 c0-1.641-1.371-2.984-3.046-2.984h-5.39c-1.675,0-3.046,1.343-3.046,2.984V70.741z"/><path fill="#3585bc" d="M64.238,66.174c-0.122,0.319-0.197,0.66-0.197,1.02c0,1.616,1.337,2.925,2.986,2.925 c1.649,0,2.986-1.31,2.986-2.925c0-0.36-0.076-0.701-0.197-1.02H64.238z"/><path fill="#6498cc" d="M62.32,70.111L62.32,70.111c-0.571,0-1.033-0.453-1.033-1.012v-9.174 c0-0.106,0.067-0.201,0.167-0.239l1.502-0.566c0.171-0.065,0.355,0.059,0.355,0.239v9.781 C63.311,69.676,62.867,70.111,62.32,70.111z"/><ellipse cx="62.299" cy="68.911" fill="#3585bc" rx=".78" ry=".764"/><path fill="#6498cc" d="M71.735,70.111L71.735,70.111c0.571,0,1.033-0.453,1.033-1.012v-9.174 c0-0.106-0.067-0.201-0.167-0.239l-1.502-0.566c-0.171-0.065-0.355,0.059-0.355,0.239v9.781 C70.744,69.676,71.188,70.111,71.735,70.111z"/><ellipse cx="71.756" cy="68.911" fill="#3585bc" rx=".78" ry=".764"/></g><g><path fill="#472b29" d="M66.689,56.633c-1.105,0-2.06-0.097-2.13-0.104c-0.11-0.011-0.189-0.11-0.179-0.22 c0.012-0.11,0.111-0.188,0.22-0.178c0.032,0.003,3.062,0.31,4.563-0.167c0.109-0.034,0.219,0.025,0.251,0.13 c0.033,0.105-0.024,0.218-0.13,0.251C68.577,56.569,67.584,56.633,66.689,56.633z"/></g><g><path fill="#472b29" d="M66.974,71.817c-3.63,0-7.187-0.655-10.569-1.945c-0.054-0.02-0.103-0.049-0.146-0.086 l-0.298-0.251c-0.116-0.103-0.179-0.254-0.169-0.409c0.012-0.179,0.023-0.782,0.035-1.379c0.013-0.619,0.025-1.231,0.037-1.393 l0,0c-0.004,0-0.081-4.335,2.16-5.565l0.275-0.155c0.261-0.148,0.514-0.292,0.917-0.479l4.261-1.764 c0.199-0.067,0.351-0.232,0.373-0.382c0.013-0.089,0.033-0.351,0.06-1.065c-1.054-0.158-2.411-0.487-3.597-1.169 c-0.939-0.54-1.697-1.182-2.962-2.98c-0.059,0.005-0.131,0.013-0.19,0.02c-0.445,0.05-1.195,0.137-1.919-0.324 c-1.54-0.97-1.795-2.222-1.521-3.07c0.239-0.738,0.984-1.49,2.373-1.573c-0.111-1.189-0.337-2.391-0.556-3.559l-0.009-1.736 c0-0.041,0.005-0.082,0.015-0.121c0.71-2.84,1.841-4.936,3.362-6.229c0.714-0.584,1.508-1.074,2.368-1.462l0.694-0.286 c1.077-0.401,2.203-0.645,3.362-0.729l1.092-0.031c2.842-0.048,5.51,0.844,7.536,2.502c1.527,1.298,2.659,3.394,3.37,6.235 c0.01,0.04,0.015,0.08,0.015,0.121v1.644c-0.228,1.25-0.454,2.466-0.564,3.651c1.389,0.084,2.134,0.835,2.373,1.573 c0.274,0.848,0.02,2.1-1.522,3.071c-0.726,0.459-1.474,0.373-1.917,0.323c-0.06-0.007-0.132-0.015-0.19-0.02 c-1.265,1.798-2.022,2.44-2.962,2.98c-0.781,0.45-1.722,0.793-2.801,1.024c0.036,0.889,0.1,1.11,0.113,1.148 c0.05,0.136,0.159,0.372,0.34,0.431c0.219,0.091,4.469,1.89,5.141,2.258c0.114,0.057,0.226,0.115,0.313,0.165 c0.033,0.016,0.082,0.039,0.118,0.053c1.509,0.588,1.895,1.913,2.072,3.13c0.004,0.045,0.149,2.702,0.257,5.302 c0.009,0.213-0.119,0.408-0.317,0.486C74.336,71.129,70.693,71.817,66.974,71.817z M56.839,68.967 c6.486,2.454,13.766,2.457,20.262,0.001c-0.104-2.474-0.236-4.885-0.236-4.885c-0.196-1.331-0.588-1.966-1.441-2.298 c-0.058-0.022-0.136-0.058-0.223-0.101c-0.099-0.055-0.196-0.105-0.311-0.163c-0.536-0.293-3.81-1.692-5.027-2.208 c-0.393-0.127-0.736-0.497-0.928-1.026c-0.07-0.194-0.155-0.583-0.187-1.886c-0.006-0.246,0.169-0.46,0.411-0.504 c0.786-0.142,1.929-0.429,2.904-0.99c0.836-0.481,1.519-1.073,2.732-2.818c0.247-0.359,0.665-0.311,1.031-0.27 c0.395,0.045,0.844,0.096,1.269-0.174c0.001,0,0.002-0.001,0.002-0.001c0.871-0.548,1.304-1.301,1.104-1.917 c-0.196-0.608-0.947-0.948-1.931-0.881c-0.14,0.011-0.283-0.044-0.386-0.145c-0.102-0.101-0.154-0.242-0.146-0.385 c0.088-1.415,0.354-2.838,0.613-4.214l-0.009-1.488c-0.457-1.806-1.352-4.23-3.025-5.652c-1.837-1.504-4.273-2.304-6.874-2.271 l-1.063,0.03c-1.042,0.076-2.075,0.299-3.047,0.661l-0.663,0.273c-0.766,0.346-1.485,0.789-2.124,1.312 c-1.668,1.418-2.561,3.84-3.018,5.645v1.582c0.249,1.28,0.516,2.699,0.604,4.122c0.009,0.143-0.044,0.284-0.146,0.385 c-0.103,0.102-0.242,0.156-0.386,0.145c-0.992-0.067-1.734,0.273-1.931,0.881c-0.199,0.616,0.233,1.369,1.104,1.917 c0.427,0.272,0.877,0.22,1.271,0.175c0.369-0.042,0.784-0.088,1.032,0.27c1.213,1.745,1.896,2.336,2.731,2.817 c1.282,0.738,2.851,1.008,3.672,1.104c0.259,0.03,0.45,0.253,0.442,0.513c-0.03,0.929-0.057,1.433-0.087,1.633 c-0.078,0.527-0.486,0.998-1.014,1.171l-4.206,1.743c-0.353,0.165-0.585,0.297-0.826,0.434l-0.288,0.161 c-1.469,0.807-1.665,4.085-1.643,4.697c-0.012,0.22-0.023,0.809-0.035,1.404c-0.009,0.44-0.018,0.884-0.026,1.169L56.839,68.967z"/></g><g><path fill="#472b29" d="M66.422,33.322c-4.632,0-12.081,2.595-12.081,11.543c0,4.157,1.178,3.427,1.178,3.427 s5.924-5.327,10.317-6.671c-2.058,1.254-4.846,2.869-7.717,4.753c2.387,0.655,9.741-2.487,12.805-5.262 c0.331,1.029,0.861,2.504,1.469,3.55c1.024,1.761,4.837,3.277,4.837,3.277s1.088,1.085,1.088-3.073 C78.319,35.918,71.054,33.322,66.422,33.322z"/></g></g><g><path fill="#fddbbc" d="M62.978,59.602c-4.927,0.422-9.781,2.846-14.547,5.175c-4.573-2.329-9.23-4.753-13.957-5.175 l-1.4,2.827l1.4,21.672c4.038,0.237,8.134,1.346,12.281,3.247V89c0.56-0.298,1.118-0.575,1.676-0.847 c0.535,0.272,1.071,0.549,1.608,0.847v-1.59c4.371-1.939,8.686-3.07,12.94-3.31l1.836-21.672L62.978,59.602z"/><path fill="#472b29" d="M50.038,89.5c-0.084,0-0.167-0.021-0.243-0.063c-0.457-0.254-0.913-0.492-1.369-0.725 c-0.479,0.234-0.956,0.474-1.436,0.729c-0.156,0.082-0.343,0.078-0.492-0.012c-0.151-0.09-0.243-0.253-0.243-0.429v-1.33 c-4.038-1.814-8.01-2.847-11.811-3.071c-0.252-0.015-0.453-0.215-0.47-0.467l-1.4-21.672c-0.006-0.088,0.012-0.175,0.051-0.254 l1.4-2.827c0.092-0.185,0.28-0.291,0.493-0.276c4.704,0.42,9.326,2.775,13.796,5.053l0.121,0.061l0.135-0.066 c4.655-2.276,9.469-4.629,14.364-5.049c0.194-0.016,0.361,0.072,0.462,0.226l1.836,2.827c0.061,0.093,0.089,0.204,0.079,0.315 l-1.836,21.672c-0.021,0.248-0.222,0.443-0.47,0.457c-4.011,0.226-8.204,1.281-12.468,3.137V89c0,0.177-0.094,0.341-0.246,0.431 C50.214,89.477,50.126,89.5,50.038,89.5z M34.944,83.63c3.882,0.289,7.923,1.385,12.019,3.262 c0.178,0.082,0.292,0.259,0.292,0.455v0.83c0.319-0.162,0.638-0.318,0.957-0.474c0.141-0.069,0.306-0.067,0.445,0.004 c0.294,0.149,0.587,0.3,0.881,0.454V87.41c0-0.198,0.116-0.377,0.297-0.457c4.324-1.918,8.588-3.036,12.681-3.324l1.785-21.071 l-1.578-2.429c-4.611,0.473-9.237,2.734-13.713,4.923l-0.359,0.176c-0.142,0.069-0.307,0.068-0.446-0.004l-0.343-0.175 c-4.275-2.178-8.693-4.429-13.093-4.914l-1.188,2.397L34.944,83.63z"/><path fill="#ee3e54" d="M46.56,89c-4.837-2.705-9.598-4.247-14.276-4.523V61.863c4.845,0.436,9.609,1.866,14.276,4.523V89z"/><path fill="#472b29" d="M46.561,89.5c-0.084,0-0.168-0.021-0.244-0.064c-4.816-2.693-9.547-4.194-14.062-4.46 c-0.265-0.015-0.471-0.234-0.471-0.499V61.863c0-0.14,0.059-0.274,0.163-0.369c0.103-0.094,0.242-0.14,0.382-0.129 c5.063,0.455,9.934,1.999,14.479,4.586c0.156,0.089,0.253,0.255,0.253,0.435V89c0,0.177-0.094,0.342-0.247,0.431 C46.735,89.477,46.648,89.5,46.561,89.5z M32.784,84.01c4.288,0.33,8.749,1.723,13.276,4.146V66.678 c-4.184-2.339-8.646-3.772-13.276-4.263V84.01z"/><g><path fill="#ee3e54" d="M50.724,89c4.837-2.705,9.598-4.247,14.276-4.523V61.863c-4.845,0.436-9.609,1.866-14.276,4.523V89 z"/><path fill="#472b29" d="M50.724,89.5c-0.088,0-0.175-0.023-0.253-0.069c-0.153-0.09-0.247-0.254-0.247-0.431V66.386 c0-0.18,0.097-0.346,0.253-0.435c4.545-2.588,9.416-4.131,14.479-4.586c0.138-0.011,0.279,0.034,0.382,0.129 c0.104,0.095,0.163,0.229,0.163,0.369v22.614c0,0.265-0.206,0.484-0.471,0.499c-4.515,0.266-9.245,1.767-14.062,4.46 C50.892,89.479,50.808,89.5,50.724,89.5z M51.224,66.678v21.479c4.527-2.423,8.988-3.816,13.276-4.146V62.415 C59.87,62.906,55.407,64.339,51.224,66.678z"/></g><g><rect width="4.759" height="22.049" x="45.965" y="66.951" fill="#ee3e54"/><path fill="#472b29" d="M50.724,89.5h-4.759c-0.276,0-0.5-0.224-0.5-0.5V66.951c0-0.276,0.224-0.5,0.5-0.5h4.759 c0.276,0,0.5,0.224,0.5,0.5V89C51.224,89.276,51,89.5,50.724,89.5z M46.465,88.5h3.759V67.451h-3.759V88.5z"/></g></g></svg>