<svg xmlns="http://www.w3.org/2000/svg"  viewBox="0 0 128 128" width="64px" height="64px"><polygon fill="#6e6458" points="51.72 77.17 42.4 78.58 39.42 68 45.83 60.38 51.72 77.17"/><path fill="#db9130" d="M105.58,47.11h-3.3a1,1,0,0,1,0-2h3.3a1,1,0,0,1,0,2Z"/><path fill="#db9130" d="M102.28,42a1,1,0,0,1,0-2l3-.12a1,1,0,0,1,.08,2l-3,.12Z"/><path fill="#6e6458" d="M118,37.23a1.94,1.94,0,0,0-1.26-.8l-5.11-.89a6.3,6.3,0,0,0-7.29,5.13l-.3,1.71a6.3,6.3,0,0,0,5.13,7.29l5.11.89.34,0A2,2,0,0,0,116.49,49l1.79-10.27A1.94,1.94,0,0,0,118,37.23Z"/><path fill="#6e6458" d="M37.88,84.13a1,1,0,0,0-1.26-.86l-14.56,4a1.49,1.49,0,0,1-1.83-1,1.53,1.53,0,0,1-.06-.44,1.49,1.49,0,0,1,1.1-1.44l14.62-4a1,1,0,0,0,.74-1,1,1,0,0,0-.08-.39A18,18,0,1,0,38,86,18.31,18.31,0,0,0,37.88,84.13ZM20,96a10,10,0,1,1,8.8-14.75l-4,1.11-3.72,1a2.49,2.49,0,0,0-1.84,2.41,2.55,2.55,0,0,0,.1.72,2.49,2.49,0,0,0,3,1.69l3.52-1L30,86.11A10,10,0,0,1,20,96Z"/><path fill="#837862" d="M35.4,87.81a1,1,0,0,1,0-2,.53.53,0,0,0,.53-.53,1,1,0,0,1,2,0A2.53,2.53,0,0,1,35.4,87.81Z"/><path fill="#6e6458" d="M108.72,79a1,1,0,0,0-.86.33,1,1,0,0,0-.22.89l1.3,5.54a.85.85,0,0,1-.63,1,.84.84,0,0,1-.65-.1.85.85,0,0,1-.39-.54L106,80.56a1,1,0,0,0-1.47-.65,7,7,0,1,0,4.2-.87Z"/><path fill="#837862" d="M108.79,71.58a1,1,0,0,1-1-1,.53.53,0,0,0-.53-.53,1,1,0,0,1,0-2,2.53,2.53,0,0,1,2.53,2.53A1,1,0,0,1,108.79,71.58Z"/><path fill="#837862" d="M102.86,72.43a1,1,0,0,1-.93-.62.53.53,0,0,0-.69-.29,1,1,0,1,1-.76-1.85A2.53,2.53,0,0,1,103.78,71a1,1,0,0,1-.92,1.38Z"/><circle cx="78.12" cy="78.54" r="6.04" fill="#ffc03b"/><circle cx="88.39" cy="72.5" r="2.38" fill="#ffc03b"/><path fill="#6e6458" d="M101,60.17a1,1,0,0,0-1.39.27l-3,4.41c-.18.1-.35.21-.53.32l1-5.62a1,1,0,0,0-2-.34L94,66,86.46,64a1,1,0,0,0-1,.26l-6.12,6.12-2.49-5.81a1,1,0,0,0-1.67-.26l-5.88,6.79-5.85-5.85a1,1,0,0,0-1.41,1.41L68,72.65l-5,5.74-5.7-8a1,1,0,0,0-1.63,1.16l5.61,7.88-3-.19a6.19,6.19,0,0,1-4.75-2.7,1,1,0,0,0-1.65,1.13,8.17,8.17,0,0,0,6.16,3.55l5.18,6a4.82,4.82,0,0,0,3.64,1.66H83A4.83,4.83,0,0,0,87.81,84l-.12-6.45c.13-.31.28-.64.43-1l.27,0a4.14,4.14,0,0,0,3.79-5.84,21.79,21.79,0,0,1,5.63-4.22,1,1,0,0,0,.37-.33l3.14-4.62A1,1,0,0,0,101,60.17ZM82.14,74.91a4.39,4.39,0,0,1,1.16,3.43A8.73,8.73,0,0,1,83,80l-.07.32c-.43,1.93-2.56,3.39-5,3.39a5.3,5.3,0,0,1-4.78-3l-.07-.12A5.31,5.31,0,0,1,78,73.08,5.67,5.67,0,0,1,82.14,74.91Zm-6.46-8L77.5,71.1A7.29,7.29,0,0,0,72.18,74l-1.43-1.43Zm-6.24,7.21,1.73,1.73a7.26,7.26,0,0,0-.48,2.59A7.38,7.38,0,0,0,70.87,80l-6.25-.4ZM83,86.81H66.88a2.82,2.82,0,0,1-2.13-1l-3.88-4.45,10.84.69A7.3,7.3,0,0,0,78,85.71c3.36,0,6.26-2.08,6.91-5l0-.13c.28-.17.55-.35.81-.54l.07,3.9A2.83,2.83,0,0,1,83,86.81Zm2.77-9.87h0a3.44,3.44,0,0,1-.43.77,6.39,6.39,0,0,0-1.7-4.15,7.57,7.57,0,0,0-2.69-1.88l5.58-5.58,6,1.55q-.83.7-1.6,1.48a4.15,4.15,0,1,0-4.74,6.79C86,76.28,85.89,76.61,85.76,76.94Zm2.05-2.46a2.16,2.16,0,1,1,2.33-3.34,2.12,2.12,0,0,1,.41,1.26A2.17,2.17,0,0,1,87.81,74.49Z"/><path fill="#6e6458" d="M28.15,32.75c-4.46-.37-17.85-3-18-3l-.19,0a3.5,3.5,0,0,0-3.5,3.5v1.3a1,1,0,0,0,.77,1l27.07,6.42.23,0a1,1,0,0,0,1-1v-.74C35.54,36.25,32.44,33.11,28.15,32.75Z"/><path fill="#db9130" d="M12.61,49.37H25.43l-4.89-3.13a1,1,0,0,0-.54-.16H12.61a6.14,6.14,0,0,0-6.14,6.14v.67A7.08,7.08,0,0,1,12.61,49.37Z"/><path fill="#ffc03b" d="M64.9,64.63,59.29,50.68a1,1,0,0,0-.7-.6c-12.87-3-11.56-.56-17.51-5.3a4.59,4.59,0,0,0-3.63-4.2L3.19,33a1,1,0,0,0-1.22,1c0,.23-.06,5.63,4.28,7.34L15.63,46a1,1,0,0,0,.27.09,7,7,0,0,1,3.43,1.67L23,51,7.16,56.28a1,1,0,0,0,.32,1.95H36l3.44,1.29a3.79,3.79,0,0,1,2.25,2.31l.55,1.59a1,1,0,0,0,.12.24l8.22,12a1,1,0,0,0,.68.42h.15a1,1,0,0,0,.63-.22L64.6,65.78A1,1,0,0,0,64.9,64.63Z"/><path fill="#db9130" d="M31,50.37H12.61a6.13,6.13,0,0,0-6.14,6.14v4a6.14,6.14,0,0,0,6.14,6.14H31a6.14,6.14,0,0,0,6.14-6.14v-4A6.14,6.14,0,0,0,31,50.37Z"/><path fill="#6e6458" d="M26.53,86.5a1,1,0,0,0-.95-.24l-3.52,1a1.49,1.49,0,0,1-1.83-1,1.53,1.53,0,0,1-.06-.44,1.49,1.49,0,0,1,1.1-1.44l3.72-1a1,1,0,0,0,.53-1.57,7,7,0,1,0,1.29,5.68A1,1,0,0,0,26.53,86.5Z"/><path fill="#ffc03b" d="M55.18,78.9l-3-4.37a1,1,0,0,0-1.09-.4L35.37,78.42l-.13,0L20.76,82.4a3.49,3.49,0,0,0-2.58,3.38,3.58,3.58,0,0,0,.14,1,3.47,3.47,0,0,0,3.33,2.5,3.56,3.56,0,0,0,.94-.13l32-8.72a1,1,0,0,0,.56-1.53Z"/><path fill="#837862" d="M20.79,71.58a1,1,0,0,1-1-1,.53.53,0,0,0-.53-.53,1,1,0,1,1,0-2,2.53,2.53,0,0,1,2.53,2.53A1,1,0,0,1,20.79,71.58Z"/><path fill="#837862" d="M26.66,73.08a1,1,0,0,1-.92-1.39.53.53,0,0,0-.29-.7,1,1,0,1,1,.77-1.85,2.53,2.53,0,0,1,1.36,3.31A1,1,0,0,1,26.66,73.08Z"/><path fill="#837862" d="M34.48,93.8a2.53,2.53,0,0,1-1-.2,1,1,0,1,1,.77-1.85.53.53,0,0,0,.7-.29,1,1,0,1,1,1.85.77,2.54,2.54,0,0,1-2.34,1.56Z"/><path fill="#837862" d="M26.51,102.52A2.54,2.54,0,0,1,24.17,101a1,1,0,0,1,1.85-.76.53.53,0,0,0,.69.29,1,1,0,0,1,.76,1.85A2.53,2.53,0,0,1,26.51,102.52Z"/><path fill="#837862" d="M14.11,102.92a1,1,0,0,1-.38-.08,2.54,2.54,0,0,1-1.36-3.31,1,1,0,1,1,1.85.77.53.53,0,0,0,.29.7,1,1,0,0,1-.39,1.92Z"/><path fill="#837862" d="M4.57,94.12a1,1,0,0,1-.93-.62A2.53,2.53,0,0,1,5,90.19,1,1,0,0,1,5.78,92a.53.53,0,0,0-.29.69,1,1,0,0,1-.92,1.38Z"/><path fill="#837862" d="M4,81.14a1,1,0,0,1-.92-1.38,2.53,2.53,0,0,1,3.31-1.36,1,1,0,1,1-.77,1.85.53.53,0,0,0-.69.29A1,1,0,0,1,4,81.14Z"/><path fill="#837862" d="M14.86,72.43a1,1,0,0,1-.93-.62.53.53,0,0,0-.69-.29,1,1,0,0,1-.76-1.85A2.53,2.53,0,0,1,15.78,71a1,1,0,0,1-.92,1.38Z"/><path fill="#837862" d="M31.45,76.67A1,1,0,0,1,30.75,75a.53.53,0,0,0,0-.75,1,1,0,0,1,1.41-1.41,2.54,2.54,0,0,1,0,3.58A1,1,0,0,1,31.45,76.67Z"/><path fill="#837862" d="M31.39,98.93a2.52,2.52,0,0,1-1.79-.74A1,1,0,0,1,31,96.77a.53.53,0,0,0,.75,0,1,1,0,0,1,1.41,1.41A2.52,2.52,0,0,1,31.39,98.93Z"/><path fill="#837862" d="M20.69,104a2.53,2.53,0,0,1-2.53-2.53,1,1,0,0,1,2,0,.53.53,0,0,0,.53.53,1,1,0,1,1,0,2Z"/><path fill="#837862" d="M8.5,99.5a1,1,0,0,1-.71-.29,2.54,2.54,0,0,1,0-3.58A1,1,0,0,1,9.2,97a.53.53,0,0,0,0,.75A1,1,0,0,1,8.5,99.5Z"/><path fill="#837862" d="M3,87.72a1,1,0,0,1-1-1,2.53,2.53,0,0,1,2.53-2.53,1,1,0,1,1,0,2,.53.53,0,0,0-.53.53A1,1,0,0,1,3,87.72Z"/><path fill="#837862" d="M7.48,75.52a1,1,0,0,1-.71-1.71,2.54,2.54,0,0,1,3.58,0,1,1,0,1,1-1.41,1.41.53.53,0,0,0-.75,0A1,1,0,0,1,7.48,75.52Z"/><path fill="#6e6458" d="M108,68a18.27,18.27,0,0,0-2,.12,1,1,0,0,0-.86,1.22l3.85,16.47a.85.85,0,0,1-.63,1,.84.84,0,0,1-.65-.1.85.85,0,0,1-.39-.54L103.5,69.67a1,1,0,0,0-1.29-.72A18,18,0,1,0,108,68Zm0,28a10,10,0,0,1-3.87-19.22l.91,4,1.29,5.63a1.85,1.85,0,1,0,3.61-.83L108.61,80l-.94-4h.3a10,10,0,0,1,0,20Z"/><path fill="#ffc03b" d="M110.89,85.35,102.58,49.8a1,1,0,0,0-1-.77,1,1,0,0,0-1,.74c-.16.58-.35,1.17-.56,1.76a19.78,19.78,0,0,1-1.77,3.56,1,1,0,0,0-.13.77l1.33,5.36,5.82,25.41a2.85,2.85,0,1,0,5.56-1.28Z"/><path fill="#837862" d="M114.66,73.08a1,1,0,0,1-.92-1.39.53.53,0,0,0-.29-.7,1,1,0,1,1,.77-1.85,2.53,2.53,0,0,1,1.36,3.31A1,1,0,0,1,114.66,73.08Z"/><path fill="#837862" d="M122.54,81.88a1,1,0,0,1-.38-1.93.53.53,0,0,0,.29-.69,1,1,0,0,1,1.85-.76,2.53,2.53,0,0,1-1.38,3.3A1,1,0,0,1,122.54,81.88Z"/><path fill="#837862" d="M122.48,93.8a2.53,2.53,0,0,1-1-.2,1,1,0,0,1,.77-1.85.53.53,0,0,0,.7-.29,1,1,0,0,1,1.85.77,2.54,2.54,0,0,1-2.34,1.56Z"/><path fill="#837862" d="M114.51,102.52a2.54,2.54,0,0,1-2.34-1.57,1,1,0,0,1,1.85-.76.53.53,0,0,0,.69.29,1,1,0,1,1,.76,1.85A2.53,2.53,0,0,1,114.51,102.52Z"/><path fill="#837862" d="M102.11,102.92a1,1,0,0,1-.38-.08,2.54,2.54,0,0,1-1.36-3.31,1,1,0,1,1,1.85.77.53.53,0,0,0,.29.7,1,1,0,0,1-.39,1.92Z"/><path fill="#837862" d="M92.57,94.12a1,1,0,0,1-.93-.62A2.53,2.53,0,0,1,93,90.19,1,1,0,0,1,93.78,92a.53.53,0,0,0-.29.69,1,1,0,0,1-.92,1.38Z"/><path fill="#837862" d="M92,81.14a1,1,0,0,1-.92-1.38,2.53,2.53,0,0,1,3.31-1.36,1,1,0,1,1-.77,1.85.53.53,0,0,0-.69.29A1,1,0,0,1,92,81.14Z"/><path fill="#837862" d="M119.45,76.67a1,1,0,0,1-.71-1.71.53.53,0,0,0,0-.75,1,1,0,0,1,1.41-1.41,2.54,2.54,0,0,1,0,3.58A1,1,0,0,1,119.45,76.67Z"/><path fill="#837862" d="M123.4,87.81a1,1,0,0,1,0-2,.53.53,0,0,0,.53-.53,1,1,0,0,1,2,0A2.53,2.53,0,0,1,123.4,87.81Z"/><path fill="#837862" d="M119.39,98.93a2.52,2.52,0,0,1-1.79-.74A1,1,0,0,1,119,96.77a.53.53,0,0,0,.75,0,1,1,0,0,1,1.41,1.41A2.52,2.52,0,0,1,119.39,98.93Z"/><path fill="#837862" d="M108.69,104a2.53,2.53,0,0,1-2.53-2.53,1,1,0,0,1,2,0,.53.53,0,0,0,.53.53,1,1,0,0,1,0,2Z"/><path fill="#837862" d="M96.5,99.5a1,1,0,0,1-.71-.29,2.54,2.54,0,0,1,0-3.58A1,1,0,0,1,97.2,97a.53.53,0,0,0,0,.75,1,1,0,0,1-.71,1.71Z"/><path fill="#837862" d="M91,87.72a1,1,0,0,1-1-1,2.53,2.53,0,0,1,2.53-2.53,1,1,0,1,1,0,2,.53.53,0,0,0-.53.53A1,1,0,0,1,91,87.72Z"/><path fill="#837862" d="M95.48,75.52a1,1,0,0,1-.71-1.71,2.54,2.54,0,0,1,3.58,0,1,1,0,0,1-1.41,1.41.53.53,0,0,0-.75,0A1,1,0,0,1,95.48,75.52Z"/><path fill="#db9130" d="M126,64.76c0-4.1-2.59-7.66-7.57-10.59-4.62-2.72-16-5.39-16.48-5.5A1,1,0,0,0,100.77,50c.39.93,1.82,8.3,1.93,9a1,1,0,0,0,1.29.87c.06,0,6.64-1.86,20.48,6.32a1,1,0,0,0,1.11,0A1.35,1.35,0,0,0,126,64.76Z"/><path fill="#ffc03b" d="M42.08,78.63a1,1,0,0,1-.95-.69L38.52,70a4.11,4.11,0,0,1,.76-3.91l3.1-3.67a1,1,0,1,1,1.53,1.29l-3.1,3.67a2.1,2.1,0,0,0-.39,2L43,77.32a1,1,0,0,1-.95,1.31Z"/><path fill="#db9130" d="M97.56,38.27a1,1,0,0,1-1-.7L93.27,27.1,88.42,26A1,1,0,1,1,88.87,24l5.41,1.26A1,1,0,0,1,95,26l3.51,11a1,1,0,0,1-1,1.3Z"/><path fill="#db9130" d="M93.72,37.5a1,1,0,0,1-1-.71l-2.16-7L87.9,29a1,1,0,1,1,.51-1.93l3.24.86a1,1,0,0,1,.7.67l2.32,7.58a1,1,0,0,1-1,1.29Z"/><path fill="#6e6458" d="M58.57,50,44,46a1,1,0,0,0-1,.29,6.27,6.27,0,0,0-1.61,4.28C41.39,55,46.48,58.5,53,58.5a16.22,16.22,0,0,0,5.45-.92,1,1,0,0,0,.66-.86l.22-5.65A1,1,0,0,0,58.57,50Z"/><path fill="#837862" d="M112.92,46.76h-.17a1,1,0,0,1-.81-1.16l1-5.5a1,1,0,1,1,2,.34l-1,5.5A1,1,0,0,1,112.92,46.76Z"/><path fill="#ffc03b" d="M98.13,36.9A9.87,9.87,0,0,0,95,35.78L79.8,33.18A10,10,0,0,0,77.64,33,21.86,21.86,0,0,0,57,54c0,.39,0,.81,0,1.21A10.84,10.84,0,0,0,67.8,66H82.37A20.76,20.76,0,0,0,100,56.15a21.22,21.22,0,0,0,2.55-5.81,35.75,35.75,0,0,0,.77-4.49A10.23,10.23,0,0,0,98.13,36.9Z"/><path fill="#db9130" d="M63,56.17a1,1,0,0,1-1-1c0-.32,0-.64,0-.94A17,17,0,0,1,78.24,38a1,1,0,0,1,.05,2A15,15,0,0,0,64,54.33c0,.27,0,.56,0,.84A1,1,0,0,1,63,56.17Z"/><path fill="#db9130" d="M95.48,45.33H86.81a1,1,0,0,1,0-2h8.67a1,1,0,0,1,0,2Z"/><path fill="#db9130" d="M95.48,50.5H79.81a1,1,0,0,1,0-2H95.48a1,1,0,0,1,0,2Z"/><path fill="#fff27f" d="M21.81,60.38a1,1,0,0,1-1-1V55.62a1,1,0,0,1,2,0v3.75A1,1,0,0,1,21.81,60.38Z"/></svg>